<svg width="55" height="22" viewBox="0 0 55 22" fill="none" xmlns="http://www.w3.org/2000/svg">
<path fill-rule="evenodd" clip-rule="evenodd" d="M0 3C0 1.34314 1.34314 0 3 0H9C10.6569 0 12 1.34314 12 3V10H21C21 8.89542 21.8954 8 23 8H24.6713C25.4442 7.3746 26.4283 7 27.5 7C28.5717 7 29.5558 7.3746 30.3287 8H32C33.1046 8 34 8.89542 34 10H43V3C43 1.34314 44.3431 0 46 0H52C53.6569 0 55 1.34314 55 3V19C55 20.6569 53.6569 22 52 22H46C44.3431 22 43 20.6569 43 19V13H34C34 14.1046 33.1046 15 32 15H30.3287C29.5558 15.6254 28.5717 16 27.5 16C26.4283 16 25.4442 15.6254 24.6713 15H23C21.8954 15 21 14.1046 21 13H12V19C12 20.6569 10.6569 22 9 22H3C1.34314 22 0 20.6569 0 19V3Z" fill="#090909"/>
</svg>
