<svg width="62" height="26" viewBox="0 0 62 26" fill="none" xmlns="http://www.w3.org/2000/svg">
<path d="M3.74138 4.2449C3.74138 1.90051 5.65575 0 8.01724 0H57.7241C60.0856 0 62 1.90051 62 4.2449V12.2041C62 14.5485 60.0856 16.449 57.7241 16.449H47.5281C47.2437 16.449 47.0106 16.6704 46.9818 16.9513C46.4608 22.034 42.1366 26 36.8793 26C31.6221 26 27.2979 22.034 26.7768 16.9513C26.748 16.6704 26.5149 16.449 26.2305 16.449H0.801724C0.358944 16.449 0 16.0926 0 15.6531V15.1224C0 14.6829 0.358944 14.3265 0.801724 14.3265H3.65771C3.70392 14.3265 3.74138 14.2893 3.74138 14.2435V4.2449Z" fill="url(#paint0_linear)"/>
<defs>
<linearGradient id="paint0_linear" x1="-9.74764" y1="-11.2971" x2="59.4805" y2="13.5834" gradientUnits="userSpaceOnUse">
<stop stop-color="#60E783"/>
<stop offset="1" stop-color="#54AEF0"/>
</linearGradient>
</defs>
</svg>
