<?xml version="1.0" standalone="no"?>
<!DOCTYPE svg PUBLIC "-//W3C//DTD SVG 20010904//EN"
 "http://www.w3.org/TR/2001/REC-SVG-20010904/DTD/svg10.dtd">
<svg version="1.0" xmlns="http://www.w3.org/2000/svg"
 width="700.000000pt" height="700.000000pt" viewBox="0 0 700.000000 700.000000"
 preserveAspectRatio="xMidYMid meet">
<metadata>
Created by potrace 1.11, written by Peter Selinger 2001-2013
</metadata>
<g transform="translate(0.000000,700.000000) scale(0.100000,-0.100000)"
fill="#000000" stroke="none">
<path d="M1455 6989 c-263 -27 -521 -121 -746 -270 -128 -85 -343 -300 -428
-429 -153 -232 -242 -481 -270 -759 -14 -137 -15 -3937 -1 -4069 23 -213 68
-370 166 -567 82 -166 171 -290 303 -421 133 -132 250 -216 416 -298 196 -98
353 -144 575 -166 72 -8 728 -10 2105 -8 l2000 3 110 23 c716 152 1223 703
1305 1417 13 122 14 3975 0 4100 -23 200 -68 360 -151 535 -159 332 -423 597
-753 756 -182 87 -344 133 -546 154 -117 12 -3968 11 -4085 -1z m4276 -2690
c79 -37 133 -90 171 -167 l33 -67 3 -393 c3 -438 1 -457 -61 -548 -19 -27 -58
-66 -88 -86 -95 -65 -118 -68 -616 -68 l-443 0 -9 -22 c-5 -13 -15 -60 -24
-105 -46 -247 -230 -474 -474 -584 -116 -53 -220 -72 -368 -66 -151 5 -221 24
-360 95 -74 38 -108 65 -191 147 -83 83 -108 115 -146 190 -51 100 -71 159
-89 255 -6 36 -16 71 -22 78 -7 9 -233 12 -1067 12 -1199 0 -1097 -8 -1107 82
-5 40 -2 50 20 72 25 25 30 26 156 26 l130 0 3 458 3 457 26 55 c47 101 126
169 228 196 36 10 502 12 2141 11 l2095 -2 56 -26z"/>
</g>
</svg>
