<svg width="47" height="64" viewBox="0 0 47 64" fill="none" xmlns="http://www.w3.org/2000/svg">
<path fill-rule="evenodd" clip-rule="evenodd" d="M47 23.5C47 33.0977 41.2463 41.3517 33 45.0006V51H34C35.1046 51 36 51.8954 36 53V55C36 56.1046 35.1046 57 34 57H33V61C33 62.6569 31.6569 64 30 64H18C16.3431 64 15 62.6569 15 61V57H14C12.8954 57 12 56.1046 12 55V53C12 51.8954 12.8954 51 14 51H15V45.4157C6.22256 42.009 0 33.4812 0 23.5C0 10.5213 10.5213 0 23.5 0C36.4787 0 47 10.5213 47 23.5Z" fill="black"/>
</svg>
