<svg width="185" height="30" viewBox="0 0 185 30" fill="none" xmlns="http://www.w3.org/2000/svg">
<path d="M3.01724 10.2653C3.01724 8.46193 4.56109 7 6.46552 7H46.5517C48.4562 7 50 8.46193 50 10.2653V16.3878C50 18.1911 48.4562 19.6531 46.5517 19.6531H38.3291C38.0998 19.6531 37.9118 19.8234 37.8886 20.0395C37.4684 23.9492 33.9811 27 29.7414 27C25.5017 27 22.0144 23.9492 21.5942 20.0395C21.571 19.8234 21.383 19.6531 21.1536 19.6531H0.646552C0.289471 19.6531 0 19.3789 0 19.0408V18.6327C0 18.2945 0.289471 18.0204 0.646552 18.0204H2.94977C2.98703 18.0204 3.01724 17.9918 3.01724 17.9565V10.2653Z" fill="url(#paint0_linear)"/>
<path d="M79.444 6.982V10.44H74.01V25H69.954V10.44H64.52V6.982H79.444ZM87.06 14.756C86.7133 14.6693 86.306 14.5827 85.838 14.496C85.37 14.392 84.8673 14.34 84.33 14.34C84.0873 14.34 83.7926 14.366 83.446 14.418C83.1166 14.4527 82.8653 14.496 82.692 14.548V25H78.818V12.052C79.5113 11.8093 80.326 11.584 81.262 11.376C82.2153 11.1507 83.2726 11.038 84.434 11.038C84.642 11.038 84.8933 11.0553 85.188 11.09C85.4826 11.1073 85.7773 11.142 86.072 11.194C86.3666 11.2287 86.6613 11.2807 86.956 11.35C87.2506 11.402 87.502 11.4713 87.71 11.558L87.06 14.756ZM93.5888 22.296C93.9701 22.296 94.3341 22.2873 94.6808 22.27C95.0275 22.2527 95.3048 22.2267 95.5128 22.192V19.254C95.3568 19.2193 95.1228 19.1847 94.8108 19.15C94.4988 19.1153 94.2128 19.098 93.9528 19.098C93.5888 19.098 93.2421 19.124 92.9128 19.176C92.6008 19.2107 92.3235 19.2887 92.0808 19.41C91.8381 19.5313 91.6475 19.696 91.5088 19.904C91.3701 20.112 91.3008 20.372 91.3008 20.684C91.3008 21.2907 91.5001 21.7153 91.8988 21.958C92.3148 22.1833 92.8781 22.296 93.5888 22.296ZM93.2768 10.96C94.4208 10.96 95.3741 11.09 96.1368 11.35C96.8995 11.61 97.5061 11.9827 97.9568 12.468C98.4248 12.9533 98.7541 13.5427 98.9448 14.236C99.1355 14.9293 99.2308 15.7007 99.2308 16.55V24.61C98.6761 24.7313 97.9048 24.87 96.9168 25.026C95.9288 25.1993 94.7328 25.286 93.3288 25.286C92.4448 25.286 91.6388 25.208 90.9108 25.052C90.2001 24.896 89.5848 24.6447 89.0648 24.298C88.5448 23.934 88.1461 23.466 87.8688 22.894C87.5915 22.322 87.4528 21.62 87.4528 20.788C87.4528 19.9907 87.6088 19.3147 87.9208 18.76C88.2501 18.2053 88.6835 17.7633 89.2208 17.434C89.7581 17.1047 90.3735 16.8707 91.0668 16.732C91.7601 16.576 92.4795 16.498 93.2248 16.498C93.7275 16.498 94.1695 16.524 94.5508 16.576C94.9495 16.6107 95.2701 16.6627 95.5128 16.732V16.368C95.5128 15.7093 95.3135 15.1807 94.9148 14.782C94.5161 14.3833 93.8228 14.184 92.8348 14.184C92.1761 14.184 91.5261 14.236 90.8848 14.34C90.2435 14.4267 89.6888 14.5567 89.2208 14.73L88.7268 11.61C88.9521 11.5407 89.2295 11.4713 89.5588 11.402C89.9055 11.3153 90.2781 11.246 90.6768 11.194C91.0755 11.1247 91.4915 11.0727 91.9248 11.038C92.3755 10.986 92.8261 10.96 93.2768 10.96ZM105.438 25H101.564V11.324H105.438V25ZM105.802 7.372C105.802 8.08267 105.568 8.646 105.1 9.062C104.649 9.46067 104.112 9.66 103.488 9.66C102.864 9.66 102.318 9.46067 101.85 9.062C101.399 8.646 101.174 8.08267 101.174 7.372C101.174 6.66133 101.399 6.10667 101.85 5.708C102.318 5.292 102.864 5.084 103.488 5.084C104.112 5.084 104.649 5.292 105.1 5.708C105.568 6.10667 105.802 6.66133 105.802 7.372ZM113.37 25.26C112.243 25.2427 111.324 25.1213 110.614 24.896C109.92 24.6707 109.366 24.3587 108.95 23.96C108.551 23.544 108.274 23.05 108.118 22.478C107.979 21.8887 107.91 21.23 107.91 20.502V5.448L111.784 4.824V19.722C111.784 20.0687 111.81 20.3807 111.862 20.658C111.914 20.9353 112.009 21.1693 112.148 21.36C112.304 21.5507 112.52 21.7067 112.798 21.828C113.075 21.9493 113.448 22.0273 113.916 22.062L113.37 25.26ZM114.316 18.266C114.316 17.0527 114.498 15.9953 114.862 15.094C115.243 14.1753 115.737 13.4127 116.344 12.806C116.951 12.1993 117.644 11.74 118.424 11.428C119.221 11.116 120.036 10.96 120.868 10.96C122.809 10.96 124.343 11.558 125.47 12.754C126.597 13.9327 127.16 15.6747 127.16 17.98C127.16 18.2053 127.151 18.4567 127.134 18.734C127.117 18.994 127.099 19.228 127.082 19.436H118.294C118.381 20.2333 118.753 20.866 119.412 21.334C120.071 21.802 120.955 22.036 122.064 22.036C122.775 22.036 123.468 21.9753 124.144 21.854C124.837 21.7153 125.401 21.5507 125.834 21.36L126.354 24.506C126.146 24.61 125.869 24.714 125.522 24.818C125.175 24.922 124.785 25.0087 124.352 25.078C123.936 25.1647 123.485 25.234 123 25.286C122.515 25.338 122.029 25.364 121.544 25.364C120.313 25.364 119.239 25.182 118.32 24.818C117.419 24.454 116.665 23.96 116.058 23.336C115.469 22.6947 115.027 21.9407 114.732 21.074C114.455 20.2073 114.316 19.2713 114.316 18.266ZM123.416 16.784C123.399 16.4547 123.338 16.134 123.234 15.822C123.147 15.51 123 15.2327 122.792 14.99C122.601 14.7473 122.35 14.548 122.038 14.392C121.743 14.236 121.371 14.158 120.92 14.158C120.487 14.158 120.114 14.236 119.802 14.392C119.49 14.5307 119.23 14.7213 119.022 14.964C118.814 15.2067 118.649 15.4927 118.528 15.822C118.424 16.134 118.346 16.4547 118.294 16.784H123.416ZM137.222 14.756C136.875 14.6693 136.468 14.5827 136 14.496C135.532 14.392 135.029 14.34 134.492 14.34C134.249 14.34 133.954 14.366 133.608 14.418C133.278 14.4527 133.027 14.496 132.854 14.548V25H128.98V12.052C129.673 11.8093 130.488 11.584 131.424 11.376C132.377 11.1507 133.434 11.038 134.596 11.038C134.804 11.038 135.055 11.0553 135.35 11.09C135.644 11.1073 135.939 11.142 136.234 11.194C136.528 11.2287 136.823 11.2807 137.118 11.35C137.412 11.402 137.664 11.4713 137.872 11.558L137.222 14.756ZM149.906 6.982H153.962V25H149.906V17.356H143.094V25H139.038V6.982H143.094V13.872H149.906V6.982ZM168.376 24.532C167.718 24.7227 166.868 24.896 165.828 25.052C164.788 25.2253 163.696 25.312 162.552 25.312C161.391 25.312 160.42 25.156 159.64 24.844C158.878 24.532 158.271 24.0987 157.82 23.544C157.37 22.972 157.049 22.296 156.858 21.516C156.668 20.736 156.572 19.878 156.572 18.942V11.324H160.446V18.474C160.446 19.722 160.611 20.6233 160.94 21.178C161.27 21.7327 161.885 22.01 162.786 22.01C163.064 22.01 163.358 22.0013 163.67 21.984C163.982 21.9493 164.26 21.9147 164.502 21.88V11.324H168.376V24.532ZM179.605 18.058C179.605 15.562 178.686 14.314 176.849 14.314C176.45 14.314 176.051 14.366 175.653 14.47C175.271 14.574 174.959 14.704 174.717 14.86V21.906C174.907 21.9407 175.15 21.9753 175.445 22.01C175.739 22.0273 176.06 22.036 176.407 22.036C177.464 22.036 178.261 21.672 178.799 20.944C179.336 20.216 179.605 19.254 179.605 18.058ZM183.557 18.162C183.557 19.254 183.392 20.242 183.063 21.126C182.751 22.01 182.291 22.764 181.685 23.388C181.078 24.012 180.333 24.4973 179.449 24.844C178.565 25.1733 177.559 25.338 176.433 25.338C175.965 25.338 175.471 25.312 174.951 25.26C174.448 25.2253 173.945 25.1733 173.443 25.104C172.957 25.0347 172.489 24.9567 172.039 24.87C171.588 24.766 171.189 24.662 170.843 24.558V5.448L174.717 4.824V11.636C175.15 11.4453 175.601 11.298 176.069 11.194C176.537 11.09 177.039 11.038 177.577 11.038C178.547 11.038 179.405 11.2113 180.151 11.558C180.896 11.8873 181.52 12.364 182.023 12.988C182.525 13.612 182.907 14.366 183.167 15.25C183.427 16.1167 183.557 17.0873 183.557 18.162Z" fill="#5DD8A1"/>
<defs>
<linearGradient id="paint0_linear" x1="-7.861" y1="-1.6901" x2="47.3422" y2="19.1099" gradientUnits="userSpaceOnUse">
<stop stop-color="#60E783"/>
<stop offset="1" stop-color="#54AEF0"/>
</linearGradient>
</defs>
</svg>
